<svg width="16" height="16" viewBox="0 0 16 16" fill="none" xmlns="http://www.w3.org/2000/svg">
<path fill-rule="evenodd" clip-rule="evenodd" d="M8 2C5.23858 2 3 4.23858 3 7C3 9.08405 4.70824 11.3881 6.24505 13.4609C6.91428 14.3635 7.551 15.2223 8 16C8.449 15.2223 9.08572 14.3635 9.75495 13.4609C11.2918 11.3881 13 9.08405 13 7C13 4.23858 10.7614 2 8 2ZM8 9.33333C9.28866 9.33333 10.3333 8.28867 10.3333 7C10.3333 5.71133 9.28866 4.66667 8 4.66667C6.71134 4.66667 5.66667 5.71133 5.66667 7C5.66667 8.28867 6.71134 9.33333 8 9.33333Z" fill="#0F7EE6"/>
</svg>
